# xmcd
#
# Track frame offsets:
#	150
#	16810
#	35344
#	51364
#	67385
#	87185
#	105014
#	120786
#	136967
#	153815
#	172253
#
# Disc length: 2475 seconds
#
# Revision: 0
# Processed by: cddbd v1.5.2PL0 Copyright (c) Steve Scherf et al.
# Submitted via: EasyCDDAExtractor 11.1.0.1
#
DISCID=8309a90b
DTITLE=Chuck Wicks - Starting Now
DYEAR=2008
DGENRE=Country
TTITLE0=The Easy Part
TTITLE1=Man of the House
TTITLE2=Mine All Mine
TTITLE3=She's Gonna Hurt Somebody
TTITLE4=Starting Now
TTITLE5=What If You Stay
TTITLE6=All I Ever Wanted
TTITLE7=Good Time Comin' On
TTITLE8=If We Loved
TTITLE9=Stealing Cinderella
TTITLE10=When You're Single
EXTD=
EXTT0=
EXTT1=
EXTT2=
EXTT3=
EXTT4=
EXTT5=
EXTT6=
EXTT7=
EXTT8=
EXTT9=
EXTT10=
PLAYORDER=
